<svg xmlns="http://www.w3.org/2000/svg" viewBox="0 0 620 140" role="img" aria-labelledby="title desc">
  <title id="title">FinTrack logo</title>
  <desc id="desc">Blue finance symbol and FINTRACK wordmark</desc>
  <defs>
    <linearGradient id="finBlue" x1="0" x2="1" y1="0" y2="1">
      <stop offset="0%" stop-color="#1e40af"/>
      <stop offset="100%" stop-color="#38bdf8"/>
    </linearGradient>
  </defs>

  <g transform="translate(10 14)">
    <path d="M36 85h78l-14-15H65l16-18h21l12-12H72L36 85z" fill="url(#finBlue)"/>
    <path d="M114 52c0-20 14-34 34-34 11 0 21 4 28 12l-12 10c-4-5-9-7-15-7-10 0-17 7-17 19 0 11 7 18 17 18 8 0 14-4 17-12h-18V43h38v8c0 20-14 35-37 35-21 0-35-14-35-34z" fill="url(#finBlue)"/>
    <path d="M158 20v72" stroke="url(#finBlue)" stroke-width="10" stroke-linecap="round"/>
    <path d="M170 33l42-16-10 34 18-1-57 41 16-30h-18z" fill="url(#finBlue)"/>
  </g>

  <g transform="translate(240 40)">
    <text x="0" y="46" font-family="Inter, Arial, sans-serif" font-size="64" font-weight="800" fill="#0f172a">FIN</text>
    <text x="126" y="46" font-family="Inter, Arial, sans-serif" font-size="64" font-weight="800" fill="#0f172a">TRACK</text>
    <rect x="0" y="58" width="320" height="5" fill="url(#finBlue)" rx="2.5"/>
    <text x="0" y="88" font-family="Inter, Arial, sans-serif" font-size="20" font-weight="600" letter-spacing="2" fill="#334155">PERSONAL FINANCE TRACKER</text>
  </g>
</svg>
