<svg xmlns="http://www.w3.org/2000/svg" viewBox="0 0 640 124" role="img" aria-labelledby="title desc">
  <title id="title">FinTrack logo</title>
  <desc id="desc">Light FinTrack logo for dark theme interfaces</desc>
  <defs>
    <linearGradient id="ftMarkGlow" x1="0%" y1="0%" x2="100%" y2="100%">
      <stop offset="0%" stop-color="#ffffff"/>
      <stop offset="42%" stop-color="#cfe5ff"/>
      <stop offset="100%" stop-color="#77a8ff"/>
    </linearGradient>
    <linearGradient id="ftMarkBorder" x1="0%" y1="0%" x2="100%" y2="100%">
      <stop offset="0%" stop-color="#f4f9ff"/>
      <stop offset="100%" stop-color="#8eb8ff"/>
    </linearGradient>
    <filter id="ftGlow" x="-35%" y="-35%" width="170%" height="170%">
      <feGaussianBlur stdDeviation="7" result="blur"/>
      <feColorMatrix in="blur" type="matrix"
        values="1 0 0 0 0
                0 1 0 0 0
                0 0 1 0 0
                0 0 0 0.8 0" result="soft"/>
      <feMerge>
        <feMergeNode in="soft"/>
        <feMergeNode in="SourceGraphic"/>
      </feMerge>
    </filter>
  </defs>

  <g transform="translate(10 12)">
    <rect x="0" y="0" width="94" height="94" rx="26" fill="#f6fbff" fill-opacity="0.06" stroke="url(#ftMarkBorder)" stroke-opacity="0.72" stroke-width="1.8"/>
    <rect x="15" y="15" width="64" height="64" rx="18" fill="#ffffff" fill-opacity="0.06" stroke="#dcebff" stroke-opacity="0.34" stroke-width="1.1"/>
    <g filter="url(#ftGlow)">
      <rect x="27" y="57" width="10" height="16" rx="5" fill="url(#ftMarkGlow)"/>
      <rect x="43" y="45" width="10" height="28" rx="5" fill="url(#ftMarkGlow)"/>
      <rect x="59" y="32" width="10" height="41" rx="5" fill="url(#ftMarkGlow)"/>
      <path d="M27 56C37 51 45 45 53 38C58 33 63 27 69 22" fill="none" stroke="url(#ftMarkGlow)" stroke-width="4.8" stroke-linecap="round"/>
      <path d="M63 22H75V34" fill="none" stroke="url(#ftMarkGlow)" stroke-width="4.8" stroke-linecap="round" stroke-linejoin="round"/>
    </g>
  </g>

  <g transform="translate(126 30)">
    <text x="0" y="34" font-family="Sora, Manrope, Arial, sans-serif" font-size="52" font-weight="800" letter-spacing="-1.2">
      <tspan fill="#ffffff">Fin</tspan>
      <tspan fill="#e8f2ff">Track</tspan>
    </text>
    <rect x="2" y="45" width="210" height="3" rx="1.5" fill="url(#ftMarkGlow)" opacity="0.95"/>
    <text x="2" y="70" font-family="Manrope, Arial, sans-serif" font-size="15" font-weight="700" letter-spacing="3.1" fill="#d3e4ff">
      PERSONAL FINANCE TRACKER
    </text>
  </g>
</svg>
